<?xml version="1.0" encoding="utf-8"?>
<!-- Generator: Adobe Illustrator 23.0.1, SVG Export Plug-In . SVG Version: 6.00 Build 0)  -->
<svg version="1.1" id="레이어_1" xmlns="http://www.w3.org/2000/svg" xmlns:xlink="http://www.w3.org/1999/xlink" x="0px"
	 y="0px" viewBox="0 0 73 66" style="enable-background:new 0 0 73 66;" xml:space="preserve">
<style type="text/css">
	.st0{fill:#FFFFFF;}
	.st1{fill:#6A3906;}
	.st2{fill:#E89BB5;}
	.st3{fill:#E05790;}
	.st4{fill:#42281D;}
</style>
<g>
	<g>
		<path class="st0" d="M26.8,16c-4.4-4.9-7.2-8.4-12.9-11.3C4.4,13.1,2.1,26.3,2.6,38.8s9,24.1,22.5,24.5s24.5,0.4,32.2-3
			c6.5-2.9,14-11.5,13.5-23.6c-0.5-12.1-5-27.3-13.6-33.9c-7.7,3.9-11.9,12.3-11.9,12.3L26.8,16z"/>
		<path d="M34.8,65c-3.1,0-6.3-0.1-9.8-0.2c-15-0.4-23.6-13.7-24-25.9C0.5,22.9,4.5,11,12.9,3.5l0.8-0.7l0.9,0.5
			c5.5,2.8,8.5,6.2,12.2,10.4l0.7,0.7l17-0.8c1.3-2.3,5.4-8.8,12.2-12.2L57.4,1l0.8,0.6c9,7,13.6,22.7,14.1,35.1
			c0.5,12.6-7.1,21.8-14.4,25C51.9,64.3,44.3,65,34.8,65z M14.1,6.5C6.9,13.4,3.5,24.3,4.1,38.8c0.5,14.8,11,22.8,21.1,23
			c13.8,0.4,24.2,0.4,31.6-2.9c5.3-2.4,13.1-10.2,12.6-22.1c-0.5-11-4.5-25.5-12.2-32.2c-6.6,3.8-10.4,11.1-10.4,11.2l-0.4,0.8
			l-20.1,1l-1.6-1.8C21.1,11.8,18.5,9,14.1,6.5z"/>
	</g>
	<g>
		<g>
			<path d="M57.2,2.8c-7.7,3.9-11.9,12.3-11.9,12.3l-5.7,0.3l0,0c0,0-1.4,17,4.7,24.7c4.8,6.1,19.4,5,25.5,4.3
				c0.7-2.4,1-4.9,0.9-7.6C70.3,24.6,65.8,9.4,57.2,2.8z"/>
			<path d="M60.7,46.4c-6.8,0-14.1-1.1-17.5-5.4c-6.5-8.1-5.1-25.1-5-25.8l0.1-1.3l6.1-0.3c1.3-2.3,5.4-8.8,12.2-12.2L57.4,1
				l0.8,0.6c9,7,13.6,22.7,14.1,35.1c0.1,2.7-0.2,5.4-1,8.1l-0.3,1l-1,0.1C67.4,46.2,64.1,46.4,60.7,46.4z M41.1,16.8
				c-0.2,4-0.3,16.4,4.5,22.4c4.2,5.3,17.7,4.4,23.1,3.8c0.5-2.1,0.7-4.2,0.6-6.2c-0.5-11-4.5-25.5-12.2-32.2
				c-6.6,3.8-10.4,11.1-10.4,11.2l-0.4,0.8L41.1,16.8z"/>
		</g>
		<g>
			<path d="M13.9,4.7C4.4,13.1,2.1,26.3,2.6,38.8c0.1,3.9,1.1,7.8,2.7,11.2c13.2,0.7,19.2-1.7,22.9-8.9c3.6-7.2,0.9-25.2,0.9-25.2
				L26.8,16C22.4,11.1,19.6,7.6,13.9,4.7z"/>
			<path d="M9.3,51.6c-1.3,0-2.7,0-4.1-0.1l-0.9,0l-0.4-0.8C2.2,47.1,1.2,43,1.1,38.9C0.5,22.9,4.5,11,12.9,3.5l0.8-0.7l0.9,0.5
				c5.5,2.8,8.5,6.2,12.2,10.4l0.7,0.7l2.9-0.1l0.2,1.3c0.1,0.8,2.7,18.5-1.1,26.1C25.9,48.8,20.3,51.6,9.3,51.6z M6.2,48.6
				c11.9,0.5,17.3-1.7,20.5-8.2c2.8-5.6,1.5-18.7,1-23l-1.6,0.1l-1.6-1.8c-3.5-3.9-6-6.8-10.4-9.2C6.9,13.4,3.5,24.3,4.1,38.8
				C4.2,42.2,4.9,45.5,6.2,48.6z"/>
		</g>
	</g>
	<path class="st0" d="M10.4,30.1l14.4-0.9c0,0-0.8,4.9-6.9,5.3S10.4,30.1,10.4,30.1z"/>
	<path class="st0" d="M46.1,27.9l13.5-0.8c0,0,1.4,4.7-5.9,5.2C46.4,32.7,46.1,27.9,46.1,27.9z"/>
	<path class="st1" d="M27.5,52c-0.3,0-0.6,0-0.6,0c-0.8-0.1-1.4-0.8-1.4-1.6c0.1-0.8,0.8-1.5,1.6-1.4c0.1,0,3.6,0.2,5.6-1.8
		c1.1-1.1,1.6-2.7,1.5-4.8c0-0.8,0.6-1.5,1.4-1.6c0.8-0.1,1.5,0.6,1.6,1.4c0.1,3-0.7,5.4-2.4,7.1C32.3,51.8,28.9,52,27.5,52z"/>
	<path class="st1" d="M43.5,51.1c-1.7,0-4-0.3-6-1.8c-2-1.5-3.1-3.8-3.3-6.8c-0.1-0.8,0.6-1.5,1.4-1.6c0.8-0.1,1.5,0.6,1.6,1.4
		c0.2,2.1,0.9,3.7,2.1,4.6c2.3,1.7,5.7,1.1,5.8,1.1c0.8-0.2,1.6,0.4,1.8,1.2c0.2,0.8-0.4,1.6-1.2,1.8C45.6,50.9,44.7,51.1,43.5,51.1
		z"/>
	<path class="st2" d="M9.6,38.7c-1.4,0.6-2.2,1.2-2,3c0.2,1.8,4.6,2.8,7,2.6s5.1-0.7,6.3-2.7s-0.8-2.3-2.3-2.8
		C17.1,38.2,11,38.1,9.6,38.7z"/>
	<path class="st2" d="M54.5,37.1c-2.1,1-3.1,2.1-1.5,4.2c1.6,2,10.3,0.4,11.8-0.7c1.4-1.2,0.6-3.3-0.8-4
		C62.7,35.8,56.6,36.2,54.5,37.1z"/>
	<path class="st3" d="M33.2,38.4c-1.1,0.8-1.3,4.2,0.2,4.1l4.5-0.3c1.9-0.1,0.8-3.3-0.2-4.1C36.6,37.4,34.4,37.6,33.2,38.4z"/>
	<path class="st4" d="M12.6,29.9l9.9-0.6c0,0-0.6,3.3-4.8,3.6C13.6,33.2,12.6,29.9,12.6,29.9z"/>
	<path class="st4" d="M47.9,27.8l9.9-0.6c0,0-0.6,3.3-4.8,3.6C48.9,31,47.9,27.8,47.9,27.8z"/>
	<path class="st3" d="M11.5,39.7c-0.6,0.8-1,1.8-1.2,2.8c-0.1,0.6,0.8,0.9,1,0.3c0.2-0.9,0.5-1.8,1.1-2.5
		C12.8,39.7,11.9,39.2,11.5,39.7L11.5,39.7z"/>
	<path class="st3" d="M14.2,40c-0.3,0.9-0.8,1.8-1.3,2.6c-0.3,0.6,0.5,1.1,0.9,0.5c0.5-0.9,1-1.9,1.4-2.8
		C15.4,39.7,14.4,39.4,14.2,40L14.2,40z"/>
	<path class="st3" d="M17.4,39.7c-0.7,0.9-1.2,1.9-1.4,3c-0.2,0.6,0.8,0.9,1,0.3c0.3-1,0.7-1.9,1.3-2.8
		C18.7,39.6,17.8,39.1,17.4,39.7L17.4,39.7z"/>
	<path class="st3" d="M57,37.9c-0.5,0.9-1,1.9-1.5,2.9c-0.3,0.6,0.6,1.1,0.9,0.5c0.5-1,0.9-1.9,1.5-2.9C58.1,37.9,57.3,37.4,57,37.9
		L57,37.9z"/>
	<path class="st3" d="M59.4,37.6c-0.5,0.9-1.1,1.9-1.6,2.8c-0.3,0.6,0.5,1.1,0.9,0.5c0.5-0.9,1.1-1.9,1.6-2.8
		C60.5,37.6,59.7,37.1,59.4,37.6L59.4,37.6z"/>
	<path class="st3" d="M62.1,37.4c-0.2,0.9-0.5,1.8-0.9,2.7c-0.2,0.6,0.7,0.9,1,0.3c0.3-0.9,0.6-1.8,0.9-2.7
		C63.2,37,62.3,36.7,62.1,37.4L62.1,37.4z"/>
</g>
</svg>
