<?xml version="1.0" encoding="utf-8"?>
<!-- Generator: Adobe Illustrator 23.0.1, SVG Export Plug-In . SVG Version: 6.00 Build 0)  -->
<svg version="1.1" id="레이어_1" xmlns="http://www.w3.org/2000/svg" xmlns:xlink="http://www.w3.org/1999/xlink" x="0px"
	 y="0px" viewBox="0 0 202 66" style="enable-background:new 0 0 202 66;" xml:space="preserve">
<g>
	<path d="M34.2,40.9H17.4l-3.3,11.2H0.9L18.1,1H34l17.2,51.2H37.4L34.2,40.9z M20,31.5h11.7L26,11.8h-0.3L20,31.5z"/>
	<path d="M95.2,32.8c0,12.6-5.6,19.9-15.2,19.9c-5.7,0-9.9-2.7-11.8-7.2h-0.2v19.1H55.3V13.5h12.5v6.9h0.2c2-4.6,6.1-7.4,11.7-7.4
		C89.5,12.9,95.2,20.2,95.2,32.8z M82.3,32.8c0-6.1-2.8-10.1-7.3-10.1c-4.4,0-7.2,4-7.3,10.1c0,6.1,2.8,10,7.3,10
		C79.5,42.9,82.3,39,82.3,32.8z"/>
	<path d="M140,32.8c0,12.6-5.6,19.9-15.2,19.9c-5.7,0-9.9-2.7-11.8-7.2h-0.2v19.1h-12.6V13.5h12.5v6.9h0.2c1.9-4.6,6.1-7.4,11.7-7.4
		C134.3,12.9,140,20.2,140,32.8z M127.1,32.8c0-6.1-2.8-10.1-7.3-10.1c-4.4,0-7.2,4-7.3,10.1c0,6.1,2.8,10,7.3,10
		C124.3,42.9,127.1,39,127.1,32.8z"/>
	<path d="M145.1,1h12.6v51.2h-12.6V1z"/>
	<path d="M200.8,39.9c-1.2,8-8.3,13.1-18.4,13.1c-12.3,0-19.6-7.6-19.6-20s7.4-20.4,19.2-20.4c11.6,0,19,7.6,19,19.4v3.5h-26.1v0.8
		c0,4.6,3.1,7.8,7.6,7.8c3.4,0,6-1.6,6.9-4.2H200.8z M175.1,28.4h14c-0.2-4.1-3-6.9-7-6.9C178.3,21.5,175.4,24.4,175.1,28.4z"/>
</g>
</svg>
